<?xml version="1.0" encoding="UTF-8" standalone="no"?>
<svg
   xmlns:dc="http://purl.org/dc/elements/1.1/"
   xmlns:cc="http://creativecommons.org/ns#"
   xmlns:rdf="http://www.w3.org/1999/02/22-rdf-syntax-ns#"
   xmlns:svg="http://www.w3.org/2000/svg"
   xmlns="http://www.w3.org/2000/svg"
   xmlns:sodipodi="http://sodipodi.sourceforge.net/DTD/sodipodi-0.dtd"
   xmlns:inkscape="http://www.inkscape.org/namespaces/inkscape"
   width="260"
   height="260"
   viewBox="0 0 68.791665 68.791669"
   version="1.1"
   id="svg8"
   inkscape:version="1.0 (4035a4fb49, 2020-05-01)"
   sodipodi:docname="black.svg">
  <defs
     id="defs2">
    <rect
       x="39.288621"
       y="24.321527"
       width="23.519718"
       height="15.367998"
       id="rect16" />
    <style
       id="style56">.cls-1{fill:#fff;}</style>
    <style
       id="style92">.cls-1{fill:#fff;}</style>
  </defs>
  <sodipodi:namedview
     id="base"
     pagecolor="#ffffff"
     bordercolor="#666666"
     borderopacity="1.0"
     inkscape:pageopacity="0.0"
     inkscape:pageshadow="2"
     inkscape:zoom="1.4"
     inkscape:cx="191.40909"
     inkscape:cy="143.79424"
     inkscape:document-units="mm"
     inkscape:current-layer="layer1"
     inkscape:document-rotation="0"
     showgrid="false"
     units="px"
     inkscape:window-width="1920"
     inkscape:window-height="1017"
     inkscape:window-x="-8"
     inkscape:window-y="-8"
     inkscape:window-maximized="1" />
  <metadata
     id="metadata5">
    <rdf:RDF>
      <cc:Work
         rdf:about="">
        <dc:format>image/svg+xml</dc:format>
        <dc:type
           rdf:resource="http://purl.org/dc/dcmitype/StillImage" />
        <dc:title />
      </cc:Work>
    </rdf:RDF>
  </metadata>
  <g
     inkscape:label="Vrstva 1"
     id="layer1"
     style="display:inline"
     inkscape:groupmode="layer">
    <text
       xml:space="preserve"
       id="text14"
       style="font-style:normal;font-weight:normal;font-size:10.5833px;line-height:1.25;font-family:sans-serif;letter-spacing:0px;word-spacing:0px;white-space:pre;shape-inside:url(#rect16);fill:#000000;fill-opacity:1;stroke:none;" />
    <g
       id="g90"
       transform="matrix(0.26458333,0,0,0.26458333,-312.65902,5.8150163)">
      <g
         id="g126"
         transform="translate(612.07554,20.802)">
        <path
           id="path110"
           d="m 685.51276,61.810819 -67.39,122.370001 h -36.52 l 0.6,-184.90000168 h 40.23 l -6.08,130.32000168 h 2 l 68.67,-130.32000168 h 32.68 l -0.58,130.32000168 h 2 l 63.54,-130.32000168 h 40 l -98.63,184.90000168 h -36.28 l -2.15,-122.370001 z"
           class="cls-1"
           style="fill:#000000" />
      </g>
    </g>
    <path
       transform="scale(0.26458333)"
       id="path38"
       d="m 12.363532,185.81945 c 0.260772,-22.45755 0.474131,-63.92184 0.474131,-92.142851 V 42.365669 H 32.48052 52.123377 l -0.0061,4.107142 c -0.0034,2.258929 -1.288229,31.267858 -2.855205,64.464289 -1.566977,33.19643 -2.84992,60.62057 -2.850985,60.94253 -0.0011,0.32197 0.659847,0.48268 1.468693,0.35715 1.156161,-0.17945 8.754904,-14.08385 35.535712,-65.02427 l 34.065068,-64.796021 16.14501,-0.02541 16.14503,-0.02541 -0.35405,65.000001 c -0.3512,64.47913 -0.34268,65 1.06382,65 1.17176,0 6.91838,-11.28254 33.1069,-65 l 31.68904,-65.000001 h 19.52011 c 18.35554,0 19.48235,0.07458 18.88712,1.25 -0.34815,0.6875 -22.43011,42.151785 -49.07102,92.142861 l -48.43802,90.89285 h -17.67317 -17.67316 l -0.39954,-6.60714 c -0.37783,-6.24816 -1.91268,-94.7959 -1.88812,-108.92857 0.0111,-6.38793 -0.0419,-6.60614 -1.59566,-6.57694 -1.38452,0.026 -6.25165,8.48602 -35.135043,61.07142 L 48.281865,226.65138 H 30.085634 11.889402 Z"
       style="fill:#00468f;stroke-width:10.8796;stroke-linecap:round;stroke-linejoin:round;paint-order:stroke markers fill;fill-opacity:1" />
  </g>
</svg>
