<svg id="Vrstva_1" data-name="Vrstva 1" xmlns="http://www.w3.org/2000/svg" viewBox="0 0 1324.97 194.4"><defs><style>.cls-1{fill:#fff;}</style></defs><rect class="cls-1" x="243.05" y="97.52" width="84.19" height="34.98"/><rect class="cls-1" x="371.06" y="4.74" width="38.7" height="184.91"/><polygon class="cls-1" points="574.3 119.94 571.99 119.94 486.9 4.74 454.61 4.74 454.61 189.66 491.65 189.66 491.65 73.94 493.95 73.94 579.29 189.66 611.33 189.66 611.33 4.74 574.3 4.74 574.3 119.94"/><polygon class="cls-1" points="731.02 146.09 728.71 146.09 686.68 4.74 642.98 4.74 705.52 189.66 752.29 189.66 813.93 4.74 772.28 4.74 731.02 146.09"/><polygon class="cls-1" points="845.45 189.66 967.96 189.66 967.96 156.59 884.15 156.59 884.15 111.61 963.22 111.61 963.22 80.99 884.15 80.99 884.15 37.8 967.96 37.8 967.96 4.74 845.45 4.74 845.45 189.66"/><path class="cls-1" d="M1096.23,81.76,1073.93,77q-16.28-3.47-23.38-8.72a16.38,16.38,0,0,1-7.12-13.84,19.63,19.63,0,0,1,8.78-16.78q8.77-6.28,23.39-6.28,14,0,23.32,6.66a24.79,24.79,0,0,1,10.76,17.68h36.4q-.9-24.72-20.57-40.23T1075.34,0q-32,0-51.38,15.83t-19.35,42q0,42.3,50.23,52.8l24.09,5.13q17,3.59,24.48,9.09a17.1,17.1,0,0,1,7.43,14.36q0,10.5-9.61,17.1t-24.73,6.6q-16.41,0-26.91-6.66t-11.79-17.94h-37.42q1,25.89,21,41t53.05,15.13q34.86,0,54.92-16.09t20.05-44q0-21.54-12.69-34.09T1096.23,81.76Z"/><polygon class="cls-1" points="1175.29 37.8 1230.78 37.8 1230.78 189.66 1269.48 189.66 1269.48 37.8 1324.97 37.8 1324.97 4.74 1175.29 4.74 1175.29 37.8"/><path class="cls-1" d="M103.91,67.28,36.52,189.65H0L.6,4.75H40.83L34.75,135.07h2L105.42,4.75H138.1l-.58,130.32h2L203.06,4.75h40l-98.63,184.9H108.15L106,67.28Z"/></svg>