<?xml version="1.0" standalone="no"?>
<!DOCTYPE svg PUBLIC "-//W3C//DTD SVG 20010904//EN"
 "http://www.w3.org/TR/2001/REC-SVG-20010904/DTD/svg10.dtd">
<svg version="1.0" xmlns="http://www.w3.org/2000/svg"
 width="773.000000pt" height="724.000000pt" viewBox="0 0 773.000000 724.000000"
 preserveAspectRatio="xMidYMid meet">

<g transform="translate(0.000000,724.000000) scale(0.100000,-0.100000)"
fill="#000000" stroke="none">
<path d="M3694 7221 c-131 -37 -251 -118 -330 -221 -42 -55 -3237 -5456 -3293
-5567 -16 -33 -37 -88 -47 -124 -24 -86 -24 -252 0 -339 49 -179 179 -342 336
-419 150 -73 100 -71 1280 -71 1023 0 1056 1 1086 19 37 23 59 77 50 125 -6
30 -30 60 -66 82 -8 5 -482 11 -1090 14 l-1075 5 -56 28 c-197 96 -295 320
-226 517 15 42 599 1041 1644 2810 1312 2221 1632 2756 1676 2803 62 64 133
102 227 119 118 22 252 -23 342 -116 40 -40 394 -633 1660 -2776 885 -1499
1623 -2750 1638 -2781 62 -121 62 -256 1 -378 -45 -89 -102 -146 -189 -188
l-76 -38 -1075 -5 c-1169 -5 -1100 -2 -1135 -61 -20 -34 -21 -81 -1 -119 33
-63 -29 -60 1127 -60 1177 0 1128 -2 1277 71 145 71 270 219 323 379 33 100
37 282 9 385 -12 42 -29 91 -37 108 -39 77 -3251 5508 -3291 5564 -78 111
-220 206 -355 238 -87 20 -256 18 -334 -4z"/>
<path d="M3740 5055 c-211 -48 -388 -220 -440 -430 -18 -71 -15 -181 34 -1495
l44 -1165 25 -69 c59 -160 177 -268 340 -312 66 -18 187 -18 253 0 168 45 315
194 354 357 9 41 100 2335 100 2538 0 152 -41 269 -134 383 -58 71 -176 151
-264 178 -88 28 -226 34 -312 15z m272 -257 c102 -47 176 -143 197 -251 13
-72 -77 -2487 -95 -2555 -18 -65 -80 -137 -143 -165 -139 -62 -311 22 -350
171 -16 61 -103 2509 -91 2560 29 121 112 212 238 259 59 21 176 13 244 -19z"/>
<path d="M3733 1186 c-143 -33 -275 -123 -359 -247 -70 -104 -95 -179 -101
-309 -9 -188 43 -327 172 -455 117 -118 254 -175 418 -175 114 0 175 14 275
62 299 142 419 516 262 818 -72 137 -189 236 -347 291 -76 27 -235 34 -320 15z
m290 -260 c208 -102 272 -366 133 -549 -70 -93 -213 -157 -319 -143 -138 19
-261 111 -307 231 -72 189 17 391 209 472 80 34 203 29 284 -11z"/>
</g>
</svg>
