<?xml version="1.0" standalone="no"?>
<!DOCTYPE svg PUBLIC "-//W3C//DTD SVG 20010904//EN"
 "http://www.w3.org/TR/2001/REC-SVG-20010904/DTD/svg10.dtd">
<svg version="1.0" xmlns="http://www.w3.org/2000/svg"
 width="725.000000pt" height="724.000000pt" viewBox="0 0 725.000000 724.000000"
 preserveAspectRatio="xMidYMid meet">

<g transform="translate(0.000000,724.000000) scale(0.100000,-0.100000)"
fill="#000000" stroke="none">
<path d="M2166 7224 c-538 -73 -1007 -295 -1395 -660 -424 -398 -701 -962
-762 -1552 -18 -179 -7 -504 24 -682 164 -931 827 -1681 1727 -1953 122 -37
268 -68 415 -89 119 -17 503 -17 625 1 441 61 836 221 1180 477 139 103 395
360 497 499 247 332 405 714 470 1135 25 163 25 558 -1 720 -119 760 -548
1397 -1198 1782 -282 167 -611 278 -951 323 -146 19 -491 19 -631 -1z m634
-239 c895 -127 1632 -784 1861 -1662 84 -318 93 -709 24 -1033 -57 -270 -177
-553 -333 -784 -367 -545 -941 -899 -1594 -982 -161 -20 -480 -15 -628 10
-234 41 -414 98 -625 200 -732 355 -1201 1049 -1266 1871 -24 311 31 670 147
967 210 535 609 965 1129 1214 195 93 362 147 586 189 202 37 476 41 699 10z"/>
<path d="M4748 2821 c-210 -68 -348 -256 -348 -475 0 -95 19 -179 58 -250 17
-31 339 -386 885 -975 472 -509 881 -947 909 -973 60 -56 163 -112 244 -133
95 -25 250 -20 340 10 153 51 281 161 347 298 45 93 61 162 61 267 0 131 -29
230 -100 335 -42 64 -1895 1790 -1977 1843 -112 71 -291 94 -419 53z m268
-244 c25 -13 430 -382 983 -895 901 -837 942 -876 973 -940 29 -59 33 -76 33
-152 0 -76 -3 -93 -33 -152 -57 -117 -161 -188 -296 -204 -73 -9 -175 23 -239
73 -58 47 -1734 1852 -1764 1901 -75 121 -32 283 96 359 29 17 65 34 80 36 47
8 123 -4 167 -26z"/>
</g>
</svg>
