<?xml version="1.0" standalone="no"?>
<!DOCTYPE svg PUBLIC "-//W3C//DTD SVG 20010904//EN"
 "http://www.w3.org/TR/2001/REC-SVG-20010904/DTD/svg10.dtd">
<svg version="1.0" xmlns="http://www.w3.org/2000/svg"
 width="725.000000pt" height="724.000000pt" viewBox="0 0 725.000000 724.000000"
 preserveAspectRatio="xMidYMid meet">

<g transform="translate(0.000000,724.000000) scale(0.100000,-0.100000)"
fill="#000000" stroke="none">
<path d="M3785 7229 c-159 -14 -309 -38 -432 -70 -495 -127 -940 -446 -1225
-877 -43 -63 -71 -93 -124 -131 -542 -384 -873 -1165 -874 -2061 l0 -195 -567
-567 -566 -567 6 -118 c8 -143 35 -259 86 -367 46 -99 76 -126 140 -126 53 0
84 18 106 60 22 42 19 65 -20 145 -40 85 -64 166 -71 250 l-6 60 446 445 c445
444 446 445 446 407 0 -54 21 -87 82 -134 351 -268 853 -419 1548 -464 227
-14 748 -7 1010 15 285 25 828 97 915 122 11 4 124 109 250 234 l230 227 595
162 595 162 115 -3 114 -3 9 -45 c5 -25 10 -110 10 -190 1 -122 -2 -158 -21
-223 -12 -42 -22 -89 -22 -103 0 -94 116 -145 193 -84 28 22 59 106 76 204 13
69 14 328 2 399 l-8 47 109 0 c117 0 153 10 182 52 31 44 13 336 -39 644 -182
1072 -670 1895 -1378 2323 -319 192 -724 324 -1129 366 -161 16 -607 19 -783
4z m795 -244 c307 -39 585 -119 828 -240 134 -67 339 -191 330 -201 -2 -2 -56
7 -119 21 -384 81 -977 92 -1329 25 -307 -58 -658 -222 -903 -422 -348 -284
-586 -646 -712 -1083 -36 -125 -51 -149 -104 -162 -35 -9 -522 112 -555 138
-51 40 -51 57 -1 290 53 244 105 409 174 554 286 599 839 996 1498 1075 264
32 661 34 893 5z m565 -595 c372 -28 653 -96 918 -223 123 -58 130 -63 177
-126 324 -439 555 -1080 635 -1766 8 -71 15 -145 15 -162 l0 -33 -282 0 -283
0 -645 -176 -645 -175 -226 -225 -226 -225 -114 -20 c-774 -131 -1622 -148
-2199 -43 -340 62 -632 168 -831 300 l-69 46 0 371 c0 205 5 413 10 462 46
409 167 801 333 1078 73 121 131 201 123 167 -44 -174 -96 -447 -96 -502 0
-129 71 -246 182 -300 29 -14 176 -56 327 -93 301 -74 342 -77 438 -35 111 49
168 125 208 275 91 345 258 629 512 876 112 109 164 151 290 233 257 168 568
272 880 295 172 12 408 12 568 1z"/>
<path d="M5555 5883 c-117 -8 -320 -36 -455 -63 -833 -167 -1446 -625 -1736
-1295 -99 -229 -178 -537 -191 -740 l-6 -101 32 -32 c28 -28 40 -32 83 -32 43
0 54 4 82 33 30 30 33 40 50 162 100 737 478 1269 1116 1574 319 152 711 244
1095 258 120 4 180 10 203 21 84 38 81 166 -4 207 -31 14 -127 17 -269 8z"/>
<path d="M6050 2823 c-472 -50 -1786 -269 -3540 -589 -1030 -188 -1805 -334
-1861 -350 -71 -21 -193 -83 -255 -129 -203 -153 -336 -380 -379 -650 -80
-488 150 -943 541 -1071 82 -27 101 -29 234 -29 131 0 154 3 235 28 50 16 295
81 545 145 l455 118 5 -111 c3 -60 11 -119 18 -131 17 -33 57 -54 100 -54 60
0 5022 1018 5050 1036 48 31 55 71 43 238 -50 680 -267 1186 -607 1412 -181
120 -356 161 -584 137z m230 -239 c334 -78 575 -428 680 -985 20 -107 51 -360
44 -368 -5 -6 -4728 -970 -4733 -966 -2 2 -8 48 -13 102 -37 392 -184 762
-414 1044 -103 126 -274 275 -402 351 l-44 26 89 16 c340 64 1870 341 2288
415 1269 224 2103 355 2420 379 11 1 49 -5 85 -14z m-5195 -918 c88 -30 228
-105 314 -168 71 -52 81 -63 65 -70 -10 -4 -158 -39 -328 -78 -170 -39 -318
-76 -328 -81 -26 -14 -48 -63 -48 -108 0 -66 38 -100 125 -112 139 -19 256
-103 318 -228 30 -61 32 -73 32 -166 -1 -127 -24 -191 -100 -273 -67 -72 -124
-103 -244 -132 -86 -21 -101 -22 -170 -11 -287 44 -481 315 -481 673 0 394
210 685 552 763 80 18 227 14 293 -9z m623 -473 c81 -103 180 -295 230 -448
32 -97 58 -203 51 -209 -7 -7 -552 -146 -556 -143 -2 2 3 21 11 43 25 73 39
186 32 273 -11 145 -66 270 -162 371 l-53 56 197 46 c108 25 202 46 209 47 6
1 25 -16 41 -36z"/>
<path d="M6163 2250 c-41 -25 -53 -48 -53 -104 0 -39 6 -52 44 -95 24 -27 58
-70 76 -95 33 -49 85 -155 78 -161 -3 -3 -2976 -581 -3239 -630 l-35 -6 -38
100 c-53 139 -117 243 -200 327 -81 81 -137 114 -197 114 -33 0 -47 -6 -75
-34 -29 -29 -34 -41 -34 -82 0 -43 4 -50 41 -83 120 -104 158 -149 203 -242
25 -52 59 -141 76 -199 32 -110 54 -143 106 -156 30 -8 3555 671 3597 693 31
16 57 66 57 110 0 56 -41 197 -80 277 -46 93 -155 237 -203 266 -41 25 -83 25
-124 0z"/>
</g>
</svg>
