<?xml version="1.0" standalone="no"?>
<!DOCTYPE svg PUBLIC "-//W3C//DTD SVG 20010904//EN"
 "http://www.w3.org/TR/2001/REC-SVG-20010904/DTD/svg10.dtd">
<svg version="1.0" xmlns="http://www.w3.org/2000/svg"
 width="725.000000pt" height="724.000000pt" viewBox="0 0 725.000000 724.000000"
 preserveAspectRatio="xMidYMid meet">

<g transform="translate(0.000000,724.000000) scale(0.100000,-0.100000)"
fill="#000000" stroke="none">
<path d="M3866 6505 l-1299 -735 -903 0 c-496 0 -910 -3 -919 -7 -10 -3 -178
-194 -375 -423 -243 -284 -360 -428 -365 -449 -9 -41 10 -96 42 -121 24 -19
40 -20 329 -20 l303 0 3 -407 3 -408 26 -56 c34 -72 88 -126 163 -164 136 -69
182 -199 113 -318 -14 -24 -45 -57 -68 -73 -38 -26 -50 -29 -119 -29 -67 0
-82 4 -118 27 -53 36 -91 102 -102 179 -10 69 -33 102 -85 119 -72 24 -155
-40 -155 -119 0 -20 7 -65 15 -100 82 -348 516 -468 771 -214 214 213 155 585
-115 727 -42 22 -72 45 -79 61 -9 18 -12 134 -12 400 l0 375 2085 0 2085 0 0
-2325 c0 -2511 -3 -2371 51 -2409 30 -20 108 -21 137 0 56 39 52 -134 52 2478
l0 2405 -44 63 c-144 211 -560 785 -574 793 -11 6 -316 12 -833 15 l-816 5
1011 571 1011 572 5 -597 c5 -654 3 -626 66 -656 41 -19 68 -19 109 1 66 31
65 18 65 663 0 320 3 581 6 581 3 0 310 -179 682 -397 l676 -398 -368 -3
c-325 -2 -370 -4 -393 -19 -42 -28 -53 -70 -53 -208 0 -133 10 -174 48 -208
29 -27 92 -33 130 -13 45 23 62 63 62 146 l0 70 445 0 445 0 0 -450 0 -450
-471 0 -471 0 -34 -34 -34 -34 0 -2422 0 -2422 34 -34 c28 -28 42 -34 75 -34
52 0 94 21 109 55 9 20 12 572 12 2360 l0 2335 476 0 476 0 34 34 34 34 0 612
0 612 -32 32 c-18 17 -468 287 -999 599 -890 523 -969 567 -1010 567 -40 -1
-171 -73 -1343 -735z m915 -1245 l196 -275 -1148 -3 c-632 -1 -1666 -1 -2298
0 l-1148 3 236 277 236 277 1865 -2 1864 -2 197 -275z"/>
<path d="M2074 3476 l-34 -34 0 -361 0 -361 -240 0 c-269 0 -285 -3 -314 -64
-15 -31 -16 -149 -16 -1295 0 -1360 -2 -1307 51 -1345 14 -9 43 -16 71 -16 39
0 54 6 80 29 l33 29 3 1211 2 1211 1415 0 c1180 0 1421 2 1449 14 68 28 95
101 61 166 -26 50 -59 60 -199 60 l-125 0 -3 366 -3 366 -33 29 c-52 47 -140
37 -179 -20 -16 -23 -18 -61 -21 -383 l-3 -358 -389 0 -390 0 0 361 0 361 -34
34 c-29 29 -41 34 -81 34 -40 0 -52 -5 -81 -34 l-34 -34 0 -361 0 -361 -395 0
-395 0 0 363 c0 328 -2 364 -18 383 -25 31 -55 44 -102 44 -34 0 -48 -6 -76
-34z"/>
<path d="M2322 2027 c-51 -29 -52 -31 -52 -381 -1 -189 3 -333 9 -343 42 -80
165 -82 206 -3 12 24 15 74 15 270 l0 240 249 0 c235 0 250 1 274 21 60 47 56
151 -7 190 -29 18 -53 19 -351 19 -237 -1 -326 -4 -343 -13z"/>
<path d="M3544 2006 l-34 -34 0 -321 c0 -355 2 -366 62 -397 66 -34 148 2 168
75 5 20 10 136 10 259 l0 222 246 0 246 0 35 35 c33 33 35 38 31 87 -4 42 -11
57 -37 80 l-31 28 -331 0 -331 0 -34 -34z"/>
<path d="M2323 781 c-17 -11 -37 -29 -42 -40 -7 -13 -11 -136 -11 -350 l0
-329 31 -31 c26 -26 38 -31 81 -31 44 0 54 4 84 34 l34 34 0 246 0 245 250 3
250 3 32 32 c27 28 32 39 32 83 0 44 -5 55 -32 83 l-32 32 -323 3 c-305 2
-324 1 -354 -17z"/>
<path d="M3573 785 c-61 -26 -63 -39 -63 -396 l0 -321 34 -34 c29 -29 41 -34
81 -34 60 0 101 28 115 78 5 20 10 137 10 260 l0 222 230 0 c256 0 287 6 314
59 33 63 10 142 -49 167 -49 20 -625 20 -672 -1z"/>
</g>
</svg>
