<?xml version="1.0" standalone="no"?>
<!DOCTYPE svg PUBLIC "-//W3C//DTD SVG 20010904//EN"
 "http://www.w3.org/TR/2001/REC-SVG-20010904/DTD/svg10.dtd">
<svg version="1.0" xmlns="http://www.w3.org/2000/svg"
 width="725.000000pt" height="724.000000pt" viewBox="0 0 725.000000 724.000000"
 preserveAspectRatio="xMidYMid meet">

<g transform="translate(0.000000,724.000000) scale(0.100000,-0.100000)"
fill="#000000" stroke="none">
<path d="M3385 7230 c-95 -15 -142 -45 -191 -122 -13 -21 -31 -38 -38 -38 -31
0 -207 -64 -306 -111 -396 -189 -721 -549 -848 -939 -57 -175 -95 -446 -72
-516 17 -50 53 -74 112 -74 43 0 55 5 82 33 32 31 33 35 39 137 30 536 402
1015 935 1204 l72 26 0 -153 c0 -132 3 -156 19 -183 39 -63 143 -67 190 -7 20
24 21 39 21 264 l0 239 28 7 c15 4 104 7 197 7 94 0 182 -3 198 -7 l27 -7 0
-239 c0 -224 1 -240 20 -264 46 -58 147 -57 189 2 19 26 21 44 21 185 l0 156
73 -26 c210 -76 373 -179 538 -343 249 -247 373 -517 398 -865 8 -106 9 -110
40 -138 25 -23 41 -28 80 -28 94 0 127 56 116 193 -24 302 -119 572 -282 799
-120 168 -324 357 -498 460 -132 79 -338 167 -428 183 -29 6 -44 16 -62 44
-34 53 -75 88 -125 107 -36 14 -89 17 -270 20 -124 1 -247 -1 -275 -6z"/>
<path d="M2553 5535 c-87 -37 -81 -185 9 -214 48 -15 298 -57 478 -81 409 -53
740 -54 1140 -4 158 20 464 71 508 85 95 31 94 187 -1 218 -30 10 -68 7 -244
-23 -392 -65 -457 -71 -818 -71 -361 0 -427 6 -815 71 -113 19 -209 34 -215
34 -5 -1 -24 -7 -42 -15z"/>
<path d="M1661 5427 c-53 -19 -73 -54 -79 -139 -7 -115 7 -150 96 -239 150
-149 376 -246 742 -319 451 -90 1119 -120 1765 -79 682 43 1146 172 1371 382
98 91 117 132 113 242 -3 65 -9 90 -25 112 -45 60 -138 61 -188 2 -21 -25 -26
-41 -26 -89 0 -57 -1 -59 -49 -102 -171 -154 -579 -260 -1186 -310 -212 -17
-928 -17 -1140 0 -607 50 -1015 156 -1186 310 -48 43 -49 45 -49 102 0 48 -5
64 -25 89 -23 27 -38 35 -85 46 -8 2 -30 -2 -49 -8z"/>
<path d="M2188 4611 l-33 -30 2 -115 c4 -232 51 -588 98 -743 75 -246 216
-472 397 -637 l71 -65 -5 -93 c-3 -51 -13 -123 -23 -160 -15 -60 -19 -66 -35
-58 -10 6 -33 10 -50 10 -49 0 -1650 -689 -1757 -756 -442 -278 -737 -824
-827 -1529 -27 -211 -31 -336 -12 -372 23 -45 53 -63 106 -63 82 0 120 50 120
157 0 86 27 300 55 438 112 556 353 963 693 1171 58 35 1541 679 1547 672 1
-2 38 -110 81 -241 l79 -237 -240 -240 c-131 -131 -240 -238 -241 -237 -1 1
11 90 27 197 38 263 38 283 -5 326 -29 29 -41 34 -79 34 -48 0 -100 -32 -111
-68 -3 -10 -33 -206 -66 -436 -59 -413 -60 -420 -42 -455 22 -46 78 -75 124
-66 26 6 113 87 410 383 l377 376 28 -15 c15 -8 73 -59 129 -114 206 -205 349
-485 429 -839 37 -169 54 -296 67 -531 l12 -210 32 -32 c26 -27 40 -33 73 -33
54 0 95 22 109 57 6 15 14 93 17 173 22 516 132 913 336 1221 64 96 239 281
292 308 l28 15 377 -376 c297 -296 384 -377 410 -383 46 -10 102 20 125 67 18
37 18 39 -42 458 -33 231 -65 429 -71 439 -20 38 -61 61 -107 61 -38 0 -50 -5
-79 -34 -43 -43 -43 -56 -4 -321 16 -110 28 -201 26 -202 -1 -1 -110 106 -241
237 l-240 240 79 237 c43 131 80 239 81 241 5 6 1480 -632 1533 -663 294 -174
525 -512 653 -955 58 -202 109 -511 109 -658 0 -113 37 -162 121 -162 60 0
105 34 115 88 9 47 -12 305 -37 452 -118 701 -430 1221 -879 1463 -120 65
-1657 717 -1690 717 -17 0 -40 -4 -50 -10 -17 -9 -20 -3 -35 63 -10 39 -20
112 -22 160 l-6 88 71 65 c140 128 269 311 343 488 75 180 113 371 144 726 22
258 22 265 -19 306 -30 30 -40 34 -84 34 -41 0 -55 -5 -80 -28 -34 -32 -35
-37 -52 -267 -14 -189 -44 -406 -72 -510 -140 -526 -608 -885 -1153 -885 -569
0 -1056 396 -1169 950 -22 109 -43 283 -56 460 -15 212 -17 219 -52 252 -25
23 -39 28 -79 28 -40 0 -55 -5 -81 -29z m869 -1785 c352 -150 770 -153 1122
-5 53 22 101 42 107 45 7 3 14 -15 18 -48 16 -118 86 -337 129 -398 14 -20 10
-36 -50 -216 -62 -186 -67 -196 -102 -218 -130 -82 -262 -213 -378 -373 -76
-106 -199 -351 -245 -488 l-33 -100 -34 102 c-112 345 -359 691 -607 849 l-52
33 -64 193 -64 193 32 64 c43 85 90 232 106 331 7 47 17 79 23 76 5 -3 47 -20
92 -40z"/>
<path d="M4941 677 c-19 -7 -44 -25 -55 -40 -19 -26 -21 -44 -24 -218 l-4
-189 -124 0 c-73 0 -135 -5 -147 -11 -40 -21 -57 -51 -57 -104 0 -53 17 -83
57 -104 15 -8 216 -11 683 -11 651 0 662 0 691 21 63 45 56 159 -13 195 -20
10 -69 14 -188 14 -88 0 -160 1 -160 3 0 2 16 50 35 108 25 73 34 113 29 134
-14 65 -54 95 -124 95 -67 0 -91 -33 -145 -197 l-47 -143 -124 0 -124 0 0 189
c0 188 0 190 -25 220 -23 27 -38 35 -85 46 -8 2 -30 -2 -49 -8z"/>
</g>
</svg>
