<?xml version="1.0" standalone="no"?>
<!DOCTYPE svg PUBLIC "-//W3C//DTD SVG 20010904//EN"
 "http://www.w3.org/TR/2001/REC-SVG-20010904/DTD/svg10.dtd">
<svg version="1.0" xmlns="http://www.w3.org/2000/svg"
 width="725.000000pt" height="724.000000pt" viewBox="0 0 725.000000 724.000000"
 preserveAspectRatio="xMidYMid meet">

<g transform="translate(0.000000,724.000000) scale(0.100000,-0.100000)"
fill="#000000" stroke="none">
<path d="M3385 7230 c-95 -15 -142 -45 -191 -122 -13 -21 -31 -38 -38 -38 -8
0 -56 -14 -108 -30 -226 -74 -462 -216 -635 -384 -286 -275 -449 -608 -483
-990 -13 -142 -6 -182 37 -216 40 -32 114 -28 154 8 31 27 32 32 40 138 16
200 54 346 135 508 70 139 138 231 263 357 160 159 335 271 539 343 l72 26 0
-153 c0 -132 3 -156 19 -183 39 -63 143 -67 190 -7 20 24 21 39 21 264 l0 239
28 7 c15 4 104 7 197 7 94 0 182 -3 198 -7 l27 -7 0 -239 c0 -224 1 -240 20
-264 48 -60 152 -57 190 6 17 28 20 51 20 184 l0 153 73 -26 c203 -72 378
-184 538 -343 251 -252 371 -513 398 -865 8 -106 9 -111 40 -138 40 -36 114
-40 154 -8 43 34 50 74 37 216 -34 382 -197 715 -483 990 -173 168 -409 310
-635 384 -52 16 -100 30 -108 30 -7 0 -25 17 -38 38 -35 54 -75 89 -126 108
-36 14 -89 17 -270 20 -124 1 -247 -1 -275 -6z"/>
<path d="M2553 5535 c-87 -37 -81 -185 9 -214 44 -14 350 -65 508 -85 387 -48
723 -48 1110 0 158 20 464 71 508 85 95 31 94 187 -1 218 -30 10 -68 7 -244
-23 -392 -65 -457 -71 -818 -71 -361 0 -427 6 -815 71 -113 19 -209 34 -215
34 -5 -1 -24 -7 -42 -15z"/>
<path d="M1627 5410 c-44 -35 -61 -153 -36 -245 17 -60 150 -187 259 -247 259
-142 674 -233 1215 -267 646 -41 1314 -11 1765 79 366 73 592 170 741 319 84
84 99 115 99 211 0 121 -36 170 -122 170 -43 0 -54 -4 -84 -34 -31 -31 -34
-39 -34 -94 0 -59 -1 -61 -49 -104 -171 -154 -579 -260 -1186 -310 -212 -17
-928 -17 -1140 0 -607 50 -1015 156 -1186 310 -48 43 -49 45 -49 104 0 55 -3
63 -34 94 -30 30 -41 34 -84 34 -35 0 -57 -6 -75 -20z"/>
<path d="M2188 4611 l-33 -30 2 -113 c2 -135 26 -376 54 -548 49 -296 162
-534 355 -749 31 -35 50 -67 60 -103 22 -84 44 -227 44 -294 l0 -62 -842 -337
c-464 -186 -865 -349 -893 -363 -136 -68 -309 -208 -417 -339 -138 -165 -260
-382 -343 -607 -46 -125 -107 -363 -134 -523 -25 -149 -47 -418 -37 -457 4
-16 20 -41 36 -57 23 -24 37 -29 77 -29 85 0 123 49 123 157 0 32 7 114 15
183 63 541 243 978 515 1251 129 129 233 196 427 274 l158 63 5 -935 5 -935
33 -29 c53 -47 150 -35 180 23 9 18 13 251 15 997 l2 975 280 112 280 112 8
-69 c44 -389 288 -787 623 -1015 258 -177 524 -259 839 -259 315 0 581 82 839
259 335 228 579 626 623 1015 l8 69 293 -117 c268 -106 292 -118 285 -136 -4
-11 -9 -447 -11 -970 -2 -739 0 -955 10 -973 31 -58 127 -70 180 -23 l33 29 5
935 5 935 146 -58 c80 -32 172 -74 205 -94 159 -96 301 -238 419 -419 182
-280 319 -740 341 -1144 3 -59 10 -123 16 -140 14 -49 51 -73 110 -73 41 0 54
5 78 29 16 16 32 41 36 57 10 39 -12 309 -37 453 -115 682 -406 1181 -838
1440 -56 34 -339 152 -927 387 l-847 339 7 103 c3 57 13 152 22 210 15 105 16
106 68 166 163 188 265 383 321 617 42 175 96 675 81 753 -10 53 -56 86 -118
86 -41 0 -54 -5 -78 -28 -32 -33 -32 -29 -55 -312 -28 -332 -63 -500 -141
-669 -78 -170 -231 -354 -384 -460 -614 -430 -1457 -210 -1775 462 -77 162
-120 374 -145 712 -17 230 -18 235 -52 267 -24 23 -39 28 -79 28 -40 0 -55 -5
-81 -29z m2176 -1833 c-13 -258 30 -464 106 -503 91 -47 196 27 176 126 l-5
28 47 -18 c26 -10 74 -30 107 -43 l60 -25 -2 -84 c-4 -164 -81 -387 -194 -558
-231 -350 -619 -561 -1034 -561 -341 0 -663 140 -899 391 -191 203 -323 496
-329 728 l-2 84 60 25 c33 13 81 33 107 43 l47 18 -5 -28 c-15 -71 42 -141
114 -141 80 0 119 52 164 216 17 66 21 108 22 250 l1 172 57 -29 c408 -206
906 -210 1299 -10 52 26 97 48 102 49 4 1 5 -58 1 -130z"/>
</g>
</svg>
