<?xml version="1.0" standalone="no"?>
<!DOCTYPE svg PUBLIC "-//W3C//DTD SVG 20010904//EN"
 "http://www.w3.org/TR/2001/REC-SVG-20010904/DTD/svg10.dtd">
<svg version="1.0" xmlns="http://www.w3.org/2000/svg"
 width="702.000000pt" height="724.000000pt" viewBox="0 0 702.000000 724.000000"
 preserveAspectRatio="xMidYMid meet">

<g transform="translate(0.000000,724.000000) scale(0.100000,-0.100000)"
fill="#000000" stroke="none">
<path d="M2992 7224 c-48 -34 -65 -101 -37 -154 29 -57 48 -60 339 -60 l266 0
31 28 c26 23 33 38 37 80 4 49 2 54 -31 87 l-35 35 -274 0 c-232 0 -277 -2
-296 -16z"/>
<path d="M4117 7220 c-37 -29 -52 -83 -38 -131 24 -78 -27 -73 821 -79 831 -6
820 -6 1008 -71 173 -61 234 -99 654 -411 l196 -146 -185 -444 c-102 -243
-187 -445 -189 -446 -1 -2 -150 105 -331 239 -501 371 -468 349 -520 349 -38
0 -50 -5 -79 -34 -28 -28 -34 -42 -34 -76 0 -23 7 -54 16 -68 9 -15 204 -166
434 -335 l418 -308 -30 -72 c-17 -40 -70 -165 -117 -279 l-87 -207 -515 380
c-283 210 -529 388 -547 395 -98 43 -195 -62 -150 -161 7 -17 211 -174 560
-431 301 -223 548 -411 548 -418 0 -16 -448 -1088 -460 -1100 -5 -5 -342 238
-764 550 -416 308 -768 562 -783 566 -15 4 -44 3 -65 -2 -50 -14 -78 -55 -78
-114 0 -39 5 -52 33 -80 17 -19 370 -283 782 -586 413 -304 756 -558 764 -565
11 -11 -5 -57 -99 -282 -62 -147 -115 -271 -119 -275 -4 -5 -409 290 -901 654
-492 363 -917 676 -944 694 -32 23 -60 34 -83 34 -106 0 -158 -122 -85 -199
15 -16 449 -340 964 -721 516 -380 940 -695 943 -700 5 -8 -305 -764 -319
-777 -2 -3 -633 460 -1401 1027 -1341 991 -1396 1033 -1378 1050 10 10 774
646 1698 1415 924 768 1692 1410 1708 1426 22 24 27 39 27 77 0 54 -18 85 -60
107 -41 21 -82 19 -121 -8 -19 -13 -801 -662 -1739 -1443 -938 -780 -1712
-1424 -1720 -1430 -12 -10 -57 19 -235 152 -187 139 -230 167 -289 185 -126
40 -258 7 -346 -84 -22 -23 -139 -177 -260 -341 -212 -288 -220 -301 -220
-345 0 -26 7 -56 15 -68 8 -11 349 -268 757 -569 l742 -549 -574 -5 c-432 -4
-580 -8 -597 -17 -59 -34 -79 -103 -48 -163 33 -63 -30 -60 1131 -60 l1056 0
34 34 c27 27 34 42 34 75 0 51 -16 86 -49 108 -23 16 -60 19 -306 23 l-280 5
-813 602 c-447 331 -813 606 -812 610 0 19 365 502 387 512 35 16 75 13 103
-6 131 -90 4021 -2971 4038 -2989 15 -17 22 -38 22 -63 0 -42 -4 -48 -256
-387 l-119 -161 -865 639 c-476 352 -881 647 -900 655 -97 42 -195 -70 -143
-165 13 -24 277 -224 952 -722 930 -687 935 -690 982 -690 35 0 54 6 73 23 40
35 466 617 489 667 29 63 34 175 12 241 -32 98 -64 131 -299 306 -121 90 -222
168 -224 173 -2 5 465 1128 1037 2494 811 1936 1041 2493 1041 2525 0 33 -7
48 -32 75 -44 45 -633 478 -728 534 -151 91 -329 155 -514 187 -74 13 -213 15
-846 15 -744 0 -758 0 -783 -20z"/>
<path d="M54 5641 c-85 -52 -63 -184 35 -211 50 -14 1933 -13 1983 0 50 14 88
61 88 108 0 46 -31 99 -66 112 -16 6 -397 10 -1017 10 -953 0 -993 -1 -1023
-19z"/>
</g>
</svg>
