<?xml version="1.0" standalone="no"?>
<!DOCTYPE svg PUBLIC "-//W3C//DTD SVG 20010904//EN"
 "http://www.w3.org/TR/2001/REC-SVG-20010904/DTD/svg10.dtd">
<svg version="1.0" xmlns="http://www.w3.org/2000/svg"
 width="724.000000pt" height="724.000000pt" viewBox="0 0 724.000000 724.000000"
 preserveAspectRatio="xMidYMid meet">

<g transform="translate(0.000000,724.000000) scale(0.100000,-0.100000)"
fill="#000000" stroke="none">
<path d="M2805 7227 c-76 -26 -101 -47 -346 -294 -258 -259 -272 -278 -250
-336 6 -15 29 -50 51 -78 101 -128 87 -300 -35 -407 -105 -92 -268 -96 -370
-9 -56 47 -77 57 -127 57 l-43 0 -663 -662 c-407 -407 -688 -695 -727 -747
-124 -164 -212 -357 -256 -561 -30 -139 -33 -401 -6 -530 68 -321 233 -586
468 -753 56 -40 74 -47 113 -47 36 0 52 6 78 29 l33 29 2 139 c2 108 8 161 27
234 87 346 350 608 696 695 109 27 296 25 410 -5 121 -32 270 -106 380 -189
52 -41 112 -77 135 -83 55 -15 128 -5 179 25 l42 25 734 -734 734 -734 -46
-49 c-51 -54 -65 -96 -49 -145 8 -23 302 -323 1024 -1044 978 -977 1014 -1011
1072 -1033 49 -18 75 -21 145 -18 137 7 153 18 461 327 319 318 324 325 324
476 0 90 -3 105 -29 155 -23 44 -219 246 -1020 1048 -545 546 -1003 1000
-1018 1008 -15 8 -47 14 -72 14 -39 0 -51 -6 -98 -49 l-54 -50 -733 733 -732
732 25 49 c34 63 36 156 5 218 -12 24 -99 120 -205 227 -196 198 -221 233
-231 334 -12 113 53 227 161 284 42 22 64 27 126 27 86 0 139 -20 208 -78 57
-48 110 -51 168 -8 21 15 137 128 257 249 257 260 272 283 272 422 0 153 19
128 -474 623 -493 495 -485 489 -625 494 -49 2 -97 -2 -121 -10z m143 -231
c15 -8 210 -198 435 -423 370 -371 407 -412 407 -441 0 -18 -6 -45 -14 -60 -8
-15 -93 -105 -189 -201 l-175 -174 -53 26 c-82 38 -135 50 -234 50 -252 2
-469 -169 -520 -410 -19 -86 -18 -140 0 -228 29 -136 60 -181 263 -387 l185
-188 -51 -54 c-45 -48 -52 -60 -52 -96 0 -23 5 -51 11 -63 6 -12 363 -374 793
-804 l781 -783 -150 -150 -150 -150 -734 734 c-719 719 -734 735 -723 761 22
48 15 103 -17 135 -33 34 -68 45 -115 36 -25 -5 -55 -29 -120 -96 l-87 -90
-42 34 c-79 65 -219 145 -320 185 -165 64 -236 76 -437 76 -196 0 -279 -16
-433 -81 -360 -152 -633 -488 -698 -860 l-11 -65 -44 57 c-204 263 -261 645
-145 986 38 113 102 234 172 328 31 41 329 347 661 679 l605 603 33 -17 c250
-129 552 -52 702 179 55 85 79 172 80 281 0 99 -10 150 -50 238 l-25 58 184
186 c212 213 220 219 277 189z m3814 -6166 c2 -14 2 -36 -1 -50 -5 -31 -479
-512 -527 -535 -21 -10 -44 -13 -61 -9 -20 4 -313 291 -976 953 l-947 946 307
308 308 307 947 -947 c667 -669 948 -955 950 -973z"/>
<path d="M5766 7225 c-258 -49 -490 -176 -676 -371 -179 -187 -294 -420 -331
-673 -16 -117 -7 -374 18 -466 l19 -70 -533 -535 -533 -535 0 -49 c0 -41 5
-53 34 -82 28 -28 42 -34 76 -34 23 0 51 5 63 11 12 6 241 230 509 497 382
382 489 482 494 469 10 -26 57 -47 105 -47 33 0 47 6 75 34 43 43 46 94 8 168
-78 154 -107 278 -107 458 -1 152 19 252 78 392 96 226 308 438 535 534 150
63 323 92 471 79 l81 -7 -306 -307 -306 -307 0 -209 0 -209 213 -213 213 -213
209 0 209 0 307 306 307 306 7 -88 c13 -169 -29 -366 -111 -525 -136 -264
-369 -449 -659 -525 -82 -21 -124 -26 -230 -27 -173 -1 -291 25 -452 99 -95
45 -134 45 -179 0 -30 -30 -34 -40 -34 -86 0 -43 4 -55 28 -78 l28 -27 -493
-495 -493 -496 0 -53 c0 -47 4 -57 34 -87 29 -29 41 -34 82 -34 l49 0 535 534
c481 481 537 533 557 525 99 -38 390 -51 545 -24 517 91 926 503 1014 1023 24
141 15 373 -20 506 -14 54 -33 115 -43 135 -24 49 -76 76 -128 67 -36 -7 -78
-46 -400 -367 l-360 -359 -105 0 -105 0 -148 148 -147 147 0 105 0 104 359
361 c397 397 393 393 355 472 -24 48 -56 66 -179 99 -87 23 -123 27 -280 30
-130 2 -202 -1 -259 -11z"/>
<path d="M2455 3283 c-11 -2 -208 -192 -437 -421 l-417 -415 -78 18 c-101 23
-353 32 -464 15 -253 -36 -486 -151 -673 -330 -200 -191 -325 -424 -372 -690
-25 -145 -15 -391 20 -525 33 -123 51 -155 99 -179 79 -38 75 -42 472 355
l361 359 104 0 105 1 147 -153 148 -153 0 -100 0 -100 -359 -360 c-321 -322
-360 -364 -367 -400 -9 -52 18 -104 67 -128 20 -10 81 -29 135 -43 133 -35
365 -44 506 -20 520 88 932 497 1023 1014 27 155 14 445 -25 546 -7 21 31 62
406 437 305 305 417 423 423 446 18 65 -22 133 -87 150 -62 15 -83 -3 -470
-390 l-374 -374 -28 29 c-24 23 -37 28 -80 28 -46 0 -56 -4 -86 -34 -45 -45
-45 -84 0 -179 74 -161 100 -279 99 -452 -1 -106 -6 -148 -27 -230 -76 -290
-261 -523 -525 -659 -159 -82 -356 -124 -525 -111 l-88 7 306 307 306 307 0
209 0 209 -213 213 -213 213 -209 0 -209 0 -307 -306 -307 -306 -7 81 c-42
479 296 941 776 1060 225 55 451 30 679 -76 93 -43 140 -41 183 7 22 25 27 40
27 81 0 42 -5 55 -28 77 l-28 27 377 380 c411 414 408 410 376 488 -23 54 -85
85 -142 70z"/>
</g>
</svg>
