<?xml version="1.0" standalone="no"?>
<!DOCTYPE svg PUBLIC "-//W3C//DTD SVG 20010904//EN"
 "http://www.w3.org/TR/2001/REC-SVG-20010904/DTD/svg10.dtd">
<svg version="1.0" xmlns="http://www.w3.org/2000/svg"
 width="725.000000pt" height="724.000000pt" viewBox="0 0 725.000000 724.000000"
 preserveAspectRatio="xMidYMid meet">

<g transform="translate(0.000000,724.000000) scale(0.100000,-0.100000)"
fill="#000000" stroke="none">
<path d="M2834 7222 c-27 -10 -459 -247 -960 -527 -872 -490 -912 -513 -979
-580 -110 -110 -155 -215 -155 -365 0 -93 20 -174 64 -257 l34 -63 -384 0
-384 0 -32 -29 -33 -29 0 -1017 0 -1017 33 -29 32 -29 1775 0 1775 0 0 -560 0
-560 -1747 0 c-1126 0 -1761 -4 -1784 -10 -73 -20 -109 -102 -75 -168 34 -65
-18 -62 991 -62 l915 0 0 -845 0 -845 -926 0 -926 0 -28 -29 c-53 -52 -52
-131 1 -175 l31 -26 3552 0 c3202 0 3554 2 3574 16 48 34 65 101 37 154 -33
64 21 60 -872 60 l-813 0 0 845 0 845 805 0 c701 0 810 2 835 15 63 33 60 -23
60 1060 0 1094 3 1037 -65 1069 -30 14 -201 16 -1679 16 l-1646 0 0 53 c0 118
-36 167 -122 167 -43 0 -54 -4 -84 -34 l-34 -34 0 -361 0 -361 -1690 0 -1690
0 0 845 0 845 915 0 c1009 0 957 -3 991 62 22 43 13 103 -20 137 -25 25 -32
26 -164 31 l-137 5 520 278 521 277 454 0 454 0 -559 -350 c-308 -192 -582
-368 -609 -391 -61 -53 -118 -140 -148 -227 -30 -88 -32 -249 -4 -332 58 -174
192 -303 365 -354 84 -25 240 -21 321 7 36 13 343 177 684 365 340 188 622
342 627 342 5 0 36 -20 68 -44 73 -53 211 -125 309 -160 189 -67 367 -96 607
-96 364 0 643 80 862 247 l46 35 81 -80 81 -81 228 -90 c195 -78 235 -91 285
-91 68 0 124 24 169 71 66 70 63 19 63 1112 0 722 -3 1000 -12 1028 -15 52
-73 117 -122 140 -24 11 -64 19 -97 19 -50 0 -73 -8 -205 -73 l-149 -74 -190
49 c-179 46 -242 55 -1070 163 l-880 115 -820 0 c-755 -1 -824 -2 -871 -18z
m2503 -327 c842 -109 898 -118 1083 -165 267 -68 272 -68 449 20 l141 70 0
-946 c0 -753 -3 -945 -12 -941 -7 3 -89 35 -183 72 l-170 68 -92 90 -92 91 -3
283 -3 283 -30 30 c-39 39 -90 48 -138 25 -64 -30 -67 -48 -67 -359 l0 -276
-57 -45 c-179 -140 -417 -208 -728 -208 -368 0 -642 89 -855 279 -99 88 -40
111 -816 -317 -370 -204 -695 -377 -721 -386 -123 -38 -271 27 -338 148 -27
48 -30 63 -30 139 0 75 3 91 29 138 17 29 44 66 62 81 17 15 332 216 700 445
368 230 679 429 691 442 76 83 30 235 -79 264 -23 7 -266 9 -660 8 l-623 -3
-707 -378 c-389 -208 -725 -383 -745 -389 -125 -34 -277 42 -340 169 -51 105
-28 235 56 317 40 39 1786 1029 1856 1052 31 10 199 13 787 13 l747 1 888
-115z m1673 -3895 l0 -840 -1575 0 -1575 0 0 840 0 840 1575 0 1575 0 0 -840z
m-1690 -1925 l0 -845 -1580 0 -1580 0 0 845 0 845 1580 0 1580 0 0 -845z"/>
</g>
</svg>
