<?xml version="1.0" standalone="no"?>
<!DOCTYPE svg PUBLIC "-//W3C//DTD SVG 20010904//EN"
 "http://www.w3.org/TR/2001/REC-SVG-20010904/DTD/svg10.dtd">
<svg version="1.0" xmlns="http://www.w3.org/2000/svg"
 width="657.000000pt" height="724.000000pt" viewBox="0 0 657.000000 724.000000"
 preserveAspectRatio="xMidYMid meet">

<g transform="translate(0.000000,724.000000) scale(0.100000,-0.100000)"
fill="#000000" stroke="none">
<path d="M44 7222 c-12 -9 -27 -27 -33 -39 -8 -16 -11 -633 -11 -2268 l0
-2247 34 -34 c29 -29 41 -34 81 -34 40 0 52 5 81 34 l34 34 0 531 0 531 306 0
306 0 34 34 c28 28 34 42 34 76 0 49 -23 94 -57 109 -16 7 -129 11 -323 11
l-300 0 0 450 0 450 190 0 190 0 37 33 c31 29 36 40 37 80 1 56 -26 97 -75
114 -21 7 -100 12 -206 12 l-173 1 0 955 0 955 790 0 790 0 0 -1485 c0 -1615
-3 -1524 55 -1555 34 -18 86 -18 120 0 58 31 55 -67 55 1630 0 1130 -3 1567
-11 1583 -6 12 -21 30 -33 39 -20 16 -86 18 -976 18 -890 0 -956 -2 -976 -18z"/>
<path d="M5733 6899 c-17 -5 -41 -20 -51 -34 -11 -14 -176 -389 -366 -833
l-346 -807 0 -2370 c0 -1551 4 -2392 10 -2435 21 -132 110 -268 224 -342 116
-75 139 -78 566 -78 427 0 450 3 566 78 114 74 203 210 224 342 6 43 10 884
10 2435 l0 2369 -336 786 c-185 432 -345 802 -355 822 -30 59 -84 84 -146 67z
m340 -1121 c130 -304 237 -556 237 -560 0 -5 -126 -8 -281 -8 -314 0 -334 -4
-363 -65 -14 -30 -16 -238 -16 -2090 0 -1852 2 -2060 16 -2090 29 -62 48 -65
373 -65 l291 0 0 -218 c0 -246 -7 -281 -67 -351 -19 -23 -58 -54 -87 -69 l-51
-27 -355 0 -355 0 -51 27 c-29 15 -68 46 -87 69 -73 84 -67 -126 -67 2488 l0
2356 247 577 248 578 66 0 65 0 237 -552z m257 -2723 l0 -1915 -220 0 -220 0
0 1915 0 1915 220 0 220 0 0 -1915z"/>
<path d="M951 6560 c-108 -23 -194 -92 -243 -196 -28 -61 -30 -71 -26 -157 3
-78 8 -100 33 -145 107 -196 369 -244 532 -97 76 68 106 132 111 238 5 99 -9
151 -61 224 -73 102 -219 159 -346 133z m120 -246 c36 -18 63 -74 54 -114 -12
-55 -83 -98 -132 -79 -69 26 -96 84 -67 144 28 60 87 80 145 49z"/>
<path d="M3459 4407 c-44 -23 -3402 -2488 -3431 -2518 l-28 -29 0 -443 c0
-485 -2 -470 60 -502 24 -12 82 -15 325 -15 l295 0 0 -417 c0 -381 2 -420 18
-439 25 -31 55 -44 102 -44 34 0 48 6 76 34 l34 34 0 491 c0 427 -2 496 -16
522 -28 55 -53 59 -374 59 l-290 0 0 303 0 303 1639 1202 c901 661 1642 1202
1645 1202 3 0 197 -119 430 -265 398 -249 427 -265 471 -265 40 0 52 5 82 35
33 33 35 39 31 86 -4 36 -12 57 -29 73 -21 20 -886 564 -946 595 -29 15 -62
14 -94 -2z"/>
<path d="M2554 1126 c-66 -29 -64 -8 -64 -561 0 -459 2 -502 18 -521 25 -31
55 -44 102 -44 34 0 48 6 76 34 l34 34 0 416 0 416 675 0 675 0 0 -416 0 -416
34 -34 c28 -28 42 -34 76 -34 47 0 77 13 102 44 16 19 18 62 18 521 0 555 3
532 -66 561 -49 20 -1633 20 -1680 0z"/>
</g>
</svg>
