<svg xmlns="http://www.w3.org/2000/svg" width="29.547" height="29.547" viewBox="0 0 29.547 29.547">
  <path id="Icon_awesome-phone-alt" data-name="Icon awesome-phone-alt" d="M28.7,20.879l-6.463-2.77a1.385,1.385,0,0,0-1.616.4L17.762,22A21.39,21.39,0,0,1,7.537,11.779l3.5-2.862a1.382,1.382,0,0,0,.4-1.616L8.662.837a1.394,1.394,0,0,0-1.587-.8l-6,1.385A1.385,1.385,0,0,0,0,2.77,26.774,26.774,0,0,0,26.777,29.547a1.385,1.385,0,0,0,1.35-1.073l1.385-6a1.4,1.4,0,0,0-.809-1.593Z" transform="translate(0 0)" fill="#fff"/>
</svg>
