<?xml version="1.0" standalone="no"?>
<!DOCTYPE svg PUBLIC "-//W3C//DTD SVG 20010904//EN"
 "http://www.w3.org/TR/2001/REC-SVG-20010904/DTD/svg10.dtd">
<svg version="1.0" xmlns="http://www.w3.org/2000/svg"
 width="700.000000pt" height="700.000000pt" viewBox="0 0 700.000000 700.000000"
 preserveAspectRatio="xMidYMid meet">
<metadata>
Created by potrace 1.14, written by Peter Selinger 2001-2017
</metadata>
<g transform="translate(0.000000,700.000000) scale(0.100000,-0.100000)"
fill="#000000" stroke="none">
<path d="M339 5787 c0 -45 -2 -597 -4 -1227 -3 -630 -7 -1713 -9 -2407 l-5
-1263 493 0 492 0 120 217 c65 119 126 229 134 244 78 144 208 381 225 409 12
19 43 76 70 125 26 50 92 169 145 265 53 96 116 211 140 255 23 44 46 85 50
90 4 6 23 39 42 75 81 149 495 902 578 1050 45 81 80 145 140 255 70 130 96
175 137 238 35 54 49 68 66 65 26 -4 22 51 32 -493 3 -209 8 -481 10 -605 2
-124 7 -355 9 -515 3 -159 8 -438 12 -620 11 -592 13 -718 15 -888 l1 -167
490 2 490 3 22 40 c23 40 77 142 162 303 26 48 61 114 79 147 18 33 54 101 80
150 26 50 62 117 80 150 18 33 88 164 155 290 67 127 139 262 160 300 21 39
183 342 360 675 177 333 339 637 360 675 21 39 58 108 82 155 25 47 57 105 70
130 28 50 89 166 168 315 29 55 100 187 156 292 57 106 104 195 104 197 0 2
17 35 38 73 21 37 61 111 89 163 28 52 65 122 83 155 18 33 57 107 87 165 31
58 63 119 73 135 10 17 42 77 72 135 30 58 81 153 112 211 31 58 56 109 56
112 0 3 -241 5 -535 6 l-534 0 -80 -162 c-43 -89 -135 -277 -204 -419 -69
-141 -159 -325 -200 -410 -41 -84 -125 -256 -187 -383 -62 -126 -150 -306
-195 -400 -45 -93 -133 -273 -195 -400 -62 -126 -148 -304 -192 -395 -218
-449 -440 -888 -462 -915 -20 -24 -27 -28 -37 -17 -14 13 -14 -8 -4 2364 l5
1137 -440 -2 -441 -2 -48 -90 c-26 -49 -78 -148 -115 -220 -38 -71 -93 -177
-123 -235 -31 -58 -72 -136 -93 -175 -20 -38 -60 -113 -87 -165 -28 -52 -162
-306 -298 -565 -136 -258 -274 -522 -308 -585 -33 -63 -72 -137 -87 -165 -15
-27 -62 -117 -105 -200 -43 -82 -85 -163 -95 -180 -10 -16 -50 -93 -90 -170
-40 -77 -85 -162 -100 -190 -15 -27 -51 -95 -80 -150 -173 -328 -227 -415
-256 -415 -15 0 -15 86 1 375 2 39 7 127 10 195 3 69 8 168 10 220 2 52 7 151
10 220 3 69 7 166 10 215 3 50 7 144 10 210 3 66 7 158 10 205 2 47 7 144 10
215 3 72 8 171 10 220 2 50 7 149 10 220 3 72 8 164 10 205 2 41 7 140 10 220
6 143 10 237 20 415 2 50 7 154 11 232 l6 141 -541 0 -541 1 -1 -82z"/>
</g>
</svg>
